<svg fill="none" height="14" viewBox="0 0 22 14" width="22" xmlns="http://www.w3.org/2000/svg">
    <path
        d="M8.34203 13.1194L6.41103 12.6014L7.19803 9.66239C6.01999 9.22792 4.92514 8.59475 3.96103 7.79039L1.80803 9.94439L0.393025 8.52939L2.54703 6.37639C1.3311 4.92015 0.514113 3.17315 0.176025 1.30639L2.14403 0.947388C2.90303 5.14939 6.57903 8.33739 11 8.33739C15.42 8.33739 19.097 5.14939 19.856 0.947388L21.824 1.30539C21.4864 3.1724 20.6697 4.91976 19.454 6.37639L21.607 8.52939L20.192 9.94439L18.039 7.79039C17.0749 8.59475 15.9801 9.22792 14.802 9.66239L15.589 12.6024L13.658 13.1194L12.87 10.1794C11.6324 10.3915 10.3677 10.3915 9.13003 10.1794L8.34203 13.1194Z"
        fill="black" />
</svg>
