<svg width="16" height="23" viewBox="0 0 16 23" fill="none" xmlns="http://www.w3.org/2000/svg">
<path d="M4 5.04395V3.04395C4 2.51351 4.21071 2.0048 4.58579 1.62973C4.96086 1.25466 5.46957 1.04395 6 1.04395H10C10.5304 1.04395 11.0391 1.25466 11.4142 1.62973C11.7893 2.0048 12 2.51351 12 3.04395V5.04395M15 5.04395V19.0439C15 19.5744 14.7893 20.0831 14.4142 20.4582C14.0391 20.8332 13.5304 21.0439 13 21.0439H3C2.46957 21.0439 1.96086 20.8332 1.58579 20.4582C1.21071 20.0831 1 19.5744 1 19.0439V5.04395H15Z" stroke="#F62E21" stroke-width="2" stroke-linecap="round" stroke-linejoin="round"/>
</svg>
