<svg width="20" height="20" viewBox="0 0 20 20" fill="none" xmlns="http://www.w3.org/2000/svg">
<path d="M7.27825 0.703924C6.59326 0.690318 6.03197 0.998883 5.96082 1.46383L5.45661 4.75821L2.12439 4.76199C1.58686 4.76261 1.1545 5.4265 1.15542 6.25072C1.15635 7.07494 1.5898 7.73837 2.12734 7.73777L5.00148 7.73441L4.29239 12.3656L0.968132 12.3698C0.430597 12.3704 -0.00092282 13.0339 1.48209e-06 13.8581C0.000923634 14.6823 0.43395 15.3457 0.971485 15.3451L3.83725 15.3418L3.40356 18.174C3.32224 18.7054 3.91257 19.2332 4.72729 19.3579C5.54201 19.4826 6.26316 19.1554 6.34447 18.6241L6.84701 15.3385L11.5324 15.333L11.0978 18.1741C11.0165 18.7054 11.6068 19.2333 12.4216 19.358C13.2363 19.4827 13.9579 19.1555 14.0392 18.6241L14.5434 15.3297L17.8756 15.326C18.4131 15.3253 18.8455 14.6619 18.8446 13.8377C18.8437 13.0135 18.4102 12.35 17.8727 12.3506L14.9985 12.354L15.7076 7.72237L19.0319 7.71859C19.5694 7.71796 20.0009 7.05408 20 6.22986C19.9991 5.40564 19.566 4.74264 19.0285 4.74324L16.1627 4.7466L16.5964 1.91393C16.6778 1.38259 16.0879 0.854706 15.2731 0.730012C14.4584 0.605321 13.7368 0.932526 13.6555 1.46389L13.153 4.74946L8.46764 4.75491L8.90217 1.91387C8.98349 1.38252 8.39316 0.85464 7.57844 0.729945C7.4766 0.71436 7.37611 0.705859 7.27825 0.703916V0.703924ZM12.697 7.72561L11.9879 12.3572L7.30302 12.3627L8.01211 7.73107L12.697 7.72561V7.72561Z" fill="#005CFF"/>
</svg>
