<svg width="20" height="19" viewBox="0 0 20 19" fill="none" xmlns="http://www.w3.org/2000/svg">
<path d="M1 0.884766H19C19.2652 0.884766 19.5196 0.990122 19.7071 1.17766C19.8946 1.3652 20 1.61955 20 1.88477V17.8848C20 18.15 19.8946 18.4043 19.7071 18.5919C19.5196 18.7794 19.2652 18.8848 19 18.8848H1C0.734784 18.8848 0.48043 18.7794 0.292893 18.5919C0.105357 18.4043 0 18.15 0 17.8848V1.88477C0 1.61955 0.105357 1.3652 0.292893 1.17766C0.48043 0.990122 0.734784 0.884766 1 0.884766ZM13 4.88477V6.88477H9V8.88477H13V10.8848L16.5 7.88477L13 4.88477ZM7 14.8848V12.8848H11V10.8848H7V8.88477L3.5 11.8848L7 14.8848Z" fill="#0C50FF"/>
</svg>
