<svg width="20" height="21" viewBox="0 0 20 21" fill="none" xmlns="http://www.w3.org/2000/svg">
<path d="M10 20.0166C4.477 20.0166 0 15.5396 0 10.0166C0 4.4936 4.477 0.0166016 10 0.0166016C15.523 0.0166016 20 4.4936 20 10.0166C20 15.5396 15.523 20.0166 10 20.0166ZM10 18.0166C12.1217 18.0166 14.1566 17.1737 15.6569 15.6735C17.1571 14.1732 18 12.1383 18 10.0166C18 7.89487 17.1571 5.86004 15.6569 4.35975C14.1566 2.85946 12.1217 2.0166 10 2.0166C7.87827 2.0166 5.84344 2.85946 4.34315 4.35975C2.84285 5.86004 2 7.89487 2 10.0166C2 12.1383 2.84285 14.1732 4.34315 15.6735C5.84344 17.1737 7.87827 18.0166 10 18.0166ZM7 7.0166H13V13.0166H7V7.0166Z" fill="#9A96A4"/>
</svg>
