<svg width="21" height="21" viewBox="0 0 21 21" fill="none" xmlns="http://www.w3.org/2000/svg">
<path d="M16.031 14.6336L20.314 18.9156L18.899 20.3306L14.617 16.0476C13.0237 17.3248 11.042 18.0195 9 18.0166C4.032 18.0166 0 13.9846 0 9.0166C0 4.0486 4.032 0.0166016 9 0.0166016C13.968 0.0166016 18 4.0486 18 9.0166C18.0029 11.0586 17.3082 13.0403 16.031 14.6336ZM14.025 13.8916C15.2941 12.5865 16.0029 10.837 16 9.0166C16 5.1486 12.867 2.0166 9 2.0166C5.132 2.0166 2 5.1486 2 9.0166C2 12.8836 5.132 16.0166 9 16.0166C10.8204 16.0195 12.5699 15.3107 13.875 14.0416L14.025 13.8916Z" fill="#9A96A4"/>
</svg>
