<svg width="18" height="20" viewBox="0 0 18 20" fill="none" xmlns="http://www.w3.org/2000/svg">
<path d="M18 18.0166C18 18.2818 17.8946 18.5361 17.7071 18.7237C17.5196 18.9112 17.2652 19.0166 17 19.0166H1C0.734784 19.0166 0.48043 18.9112 0.292893 18.7237C0.105357 18.5361 7.92656e-08 18.2818 7.92656e-08 18.0166V7.33056C-6.00579e-05 7.17951 0.0340991 7.03041 0.0999132 6.89445C0.165727 6.7585 0.261486 6.63921 0.38 6.54556L8.38 0.234563C8.55655 0.095054 8.77499 0.019165 9 0.019165C9.22501 0.019165 9.44345 0.095054 9.62 0.234563L17.62 6.54456C17.7386 6.63832 17.8345 6.75776 17.9003 6.8939C17.9661 7.03005 18.0002 7.17935 18 7.33056V18.0166ZM4 10.0166C4 11.3426 4.52678 12.6144 5.46447 13.5521C6.40215 14.4898 7.67392 15.0166 9 15.0166C10.3261 15.0166 11.5979 14.4898 12.5355 13.5521C13.4732 12.6144 14 11.3426 14 10.0166H12C12 10.8122 11.6839 11.5753 11.1213 12.1379C10.5587 12.7005 9.79565 13.0166 9 13.0166C8.20435 13.0166 7.44129 12.7005 6.87868 12.1379C6.31607 11.5753 6 10.8122 6 10.0166H4Z" fill="#9A96A4"/>
</svg>
